<?xml version="1.0" standalone="no"?>
<!DOCTYPE svg PUBLIC "-//W3C//DTD SVG 20010904//EN"
 "http://www.w3.org/TR/2001/REC-SVG-20010904/DTD/svg10.dtd">
<svg version="1.0" xmlns="http://www.w3.org/2000/svg"
 width="600.000000pt" height="600.000000pt" viewBox="0 0 600.000000 600.000000"
 preserveAspectRatio="xMidYMid meet">

<g transform="translate(0.000000,600.000000) scale(0.100000,-0.100000)"
fill="#000000" stroke="none">
<path d="M1427 5555 c-16 -194 -40 -834 -56 -1470 -10 -378 2 -1274 18 -1470
81 -952 423 -1618 1042 -2025 143 -94 408 -218 534 -250 48 -12 54 -10 160 28
329 118 641 325 860 572 272 305 454 687 560 1175 78 360 101 820 91 1780 -6
559 -10 691 -41 1345 -8 179 -15 341 -16 360 -1 39 5 48 -116 -205 -66 -138
-185 -355 -246 -445 -71 -106 -123 -166 -175 -200 -42 -28 -53 -30 -131 -30
-47 0 -129 7 -181 15 -350 56 -373 58 -715 58 -342 1 -399 -3 -680 -49 -186
-30 -301 -32 -353 -5 -74 38 -176 169 -296 377 -40 70 -214 424 -243 494 -8
21 -11 13 -16 -55z m835 -2656 c177 -55 330 -105 340 -110 43 -23 2 -146 -72
-212 -56 -51 -96 -67 -170 -67 -122 0 -243 65 -341 185 -61 73 -149 229 -149
262 0 25 19 43 47 43 12 0 168 -45 345 -101z m1870 76 c12 -28 -11 -85 -82
-194 -118 -183 -266 -278 -418 -269 -116 6 -201 75 -237 192 -12 41 -13 53 -2
69 9 14 105 49 337 122 179 57 340 103 358 104 25 1 35 -4 44 -24z m-2202
-925 c325 -20 485 -52 668 -136 29 -13 55 -24 58 -24 3 0 83 -39 178 -86 l172
-86 106 55 c249 131 442 208 598 237 138 26 600 63 600 48 0 -3 -14 -36 -31
-73 -17 -37 -51 -138 -75 -224 -25 -86 -59 -198 -76 -250 -41 -125 -140 -318
-210 -412 -148 -196 -532 -505 -766 -617 -66 -32 -87 -37 -147 -37 -62 0 -80
5 -157 42 -110 53 -170 92 -343 221 -407 305 -557 523 -685 992 -45 164 -69
238 -96 292 -13 26 -24 52 -24 58 0 12 23 12 230 0z"/>
<path d="M2536 1499 c-31 -25 -35 -66 -7 -97 18 -22 20 -22 474 -22 l456 0 21
27 c25 32 20 69 -12 96 -19 16 -56 17 -463 17 -432 0 -443 0 -469 -21z"/>
</g>
</svg>
