<?xml version="1.0" standalone="no"?>
<!DOCTYPE svg PUBLIC "-//W3C//DTD SVG 20010904//EN"
 "http://www.w3.org/TR/2001/REC-SVG-20010904/DTD/svg10.dtd">
<svg version="1.0" xmlns="http://www.w3.org/2000/svg"
 width="600.000000pt" height="600.000000pt" viewBox="0 0 600.000000 600.000000"
 preserveAspectRatio="xMidYMid meet">

<g transform="translate(0.000000,600.000000) scale(0.100000,-0.100000)"
fill="#000000" stroke="none">
<path d="M1860 5002 c-7 -3 -10 -87 -10 -245 l1 -242 -713 -5 c-392 -3 -723
-9 -736 -14 -19 -7 -22 -16 -22 -57 0 -26 5 -51 10 -54 6 -4 10 -67 10 -156 0
-125 -2 -149 -15 -149 -12 0 -15 33 -18 218 -1 119 -3 -153 -5 -605 l-2 -822
41 -11 c23 -6 60 -15 83 -19 l41 -7 3 -917 2 -917 2470 0 2470 0 0 915 0 914
38 10 c20 6 42 11 47 11 6 0 27 5 48 11 l37 10 0 819 c0 450 -3 820 -7 822 -5
2 -326 2 -715 0 -617 -2 -708 -4 -708 -17 0 -8 -9 -15 -20 -15 -11 0 -20 7
-20 15 0 8 -4 15 -10 15 -6 0 -10 88 -10 245 0 189 -3 245 -12 245 -107 3
-2271 4 -2278 2z m2124 -148 c14 -5 16 -30 16 -175 l0 -169 -967 -2 c-533 -2
-981 -1 -998 2 l-30 6 -3 164 c-2 124 1 165 10 172 15 9 1948 11 1972 2z
m-3484 -613 c0 -89 -4 -152 -10 -156 -7 -4 -10 48 -10 149 0 97 4 156 10 156
6 0 10 -56 10 -149z m2940 -1921 l0 -440 -440 0 -440 0 0 433 c0 239 3 437 7
440 3 4 201 7 440 7 l433 0 0 -440z"/>
<path d="M2760 2315 l0 -245 240 0 240 0 0 245 0 245 -240 0 -240 0 0 -245z"/>
</g>
</svg>
